# xmcd
#
# Track frame offsets:
#	150
#	14720
#	32012
#	49460
#	63865
#	76637
#	88542
#	103822
#	118412
#	132192
#	151522
#	165792
#	178015
#	193675
#
# Disc length: 2779 seconds
#
# Revision: 1
# Processed by: cddbd v1.5.1PL0 Copyright (c) Steve Scherf et al.
# Submitted via: audiograbber 1.83.01
#
DISCID=ac0ad90e
DTITLE=Don Williams - A Good Fire Goin'
DYEAR=1990
DGENRE=Country
TTITLE0=Desperately
TTITLE1=Old Coyote Town
TTITLE2=Heartbeat In The Darkness
TTITLE3=I'll Never Be In love Again
TTITLE4=Shot Full Of Love
TTITLE5=We Got Love
TTITLE6=Send Her Roses
TTITLE7=Another Place, Another Time
TTITLE8=She's A Heartful
TTITLE9=Senorita
TTITLE10=The Light In Your Eyes
TTITLE11=It's About Time
TTITLE12=Then It's Love
TTITLE13=We've Got A Good Fire Goin'
EXTD=
EXTT0=
EXTT1=
EXTT2=
EXTT3=
EXTT4=
EXTT5=
EXTT6=
EXTT7=
EXTT8=
EXTT9=
EXTT10=
EXTT11=
EXTT12=
EXTT13=
PLAYORDER=
